<?xml version="1.0" standalone="no"?><!DOCTYPE svg PUBLIC "-//W3C//DTD SVG 1.1//EN" "http://www.w3.org/Graphics/SVG/1.1/DTD/svg11.dtd"><svg t="1595170257405" class="icon" viewBox="0 0 1024 1024" version="1.1" xmlns="http://www.w3.org/2000/svg" p-id="2754" width="32" height="32" xmlns:xlink="http://www.w3.org/1999/xlink"><defs><style type="text/css"></style></defs><path d="M51.7858 271.213327S145.115953 127.634103 292.425457 50.687928c147.528932-77.019319 329.142387-54.857064 448.218788 19.748543 119.222687 74.67875 159.304915 137.727803 159.304915 137.727803l102.619282-58.367917s21.211398-10.459414 21.211398 14.043409v366.445191s0 32.621668-24.868536 20.918827c-20.699399-9.801129-246.198505-137.727803-317.146975-178.02946-38.911944-17.407975-4.754279-31.451384-4.754279-31.451384l99.10843-56.539347s-56.539348-70.655899-139.190658-108.031846c-88.502731-46.006791-171.300327-51.492498-272.822468-13.165696-66.194191 24.868536-144.091223 88.795302-200.191714 183.003168L51.7858 271.213327z m920.135829 484.205022s-93.25701 143.506081-240.639657 220.5254c-147.382647 77.019319-329.142387 54.857064-448.145645-19.821686-119.222687-74.605608-159.304915-137.727803-159.304915-137.727804l-102.692425 58.367917S0.000731 887.22159 0.000731 862.865053V496.273577s0-32.621668 24.868536-20.99197c20.699399 9.801129 246.125363 137.727803 317.146976 178.102602 38.911944 17.334832 4.681136 31.451384 4.681136 31.451384l-99.10843 56.539348s56.612491 70.582756 139.263801 107.958703c88.429588 46.079934 171.300327 51.492498 272.749325 13.238838 66.194191-24.868536 144.091223-88.722159 200.191714-183.07631l112.12784 75.849035z" p-id="2755" fill="#bfbfbf"></path></svg>