<?xml version="1.0" standalone="no"?><!DOCTYPE svg PUBLIC "-//W3C//DTD SVG 1.1//EN" "http://www.w3.org/Graphics/SVG/1.1/DTD/svg11.dtd"><svg t="1593271384407" class="icon" viewBox="0 0 1334 1024" version="1.1" xmlns="http://www.w3.org/2000/svg" p-id="2276" xmlns:xlink="http://www.w3.org/1999/xlink" width="260.546875" height="200"><defs><style type="text/css"></style></defs><path d="M358.962361 510.287738c0 75.364721-61.129443 136.477377-136.527738 136.477377-75.398295 0-136.527738-61.112656-136.527738-136.477377 0-75.356328 61.129443-136.46059 136.527738-136.46059 75.398295 0 136.527738 61.104262 136.527738 136.46059z m444.844065 0c0 75.364721-61.129443 136.477377-136.527737 136.477377-75.398295 0-136.527738-61.112656-136.527738-136.477377 0-75.356328 61.129443-136.46059 136.527738-136.46059 75.398295 0 136.527738 61.104262 136.527737 136.46059z m444.844066 0c0 75.364721-61.129443 136.477377-136.527738 136.477377-75.398295 0-136.527738-61.112656-136.527738-136.477377 0-75.356328 61.129443-136.46059 136.527738-136.46059 75.398295 0 136.527738 61.104262 136.527738 136.46059z" p-id="2277" fill="#4692B8"></path></svg>