<?xml version="1.0" standalone="no"?><!DOCTYPE svg PUBLIC "-//W3C//DTD SVG 1.1//EN" "http://www.w3.org/Graphics/SVG/1.1/DTD/svg11.dtd"><svg t="1593270892834" class="icon" viewBox="0 0 1024 1024" version="1.1" xmlns="http://www.w3.org/2000/svg" p-id="2269" xmlns:xlink="http://www.w3.org/1999/xlink" width="200" height="200"><defs><style type="text/css"></style></defs><path d="M525.39847111 1025.43815111c-14.70919111 0-29.12711111-4.29624889-41.65176889-12.16056889l-387.97312-245.90563555a71.36142222 71.36142222 0 0 1-33.20490667-60.87566222L62.71431111 307.38204445a72.0896 72.0896 0 0 1 34.36999111-61.45820445l388.33720889-236.07523555a78.13347555 78.13347555 0 0 1 81.04618667 0.07281777l388.04593777 236.43932445a72.23523555 72.23523555 0 0 1 34.29717334 61.53102222l-0.21845334 398.96860444a71.72551111 71.72551111 0 0 1-33.20490666 61.02129778l-388.33720889 245.39591111c-12.45184 7.86432-26.94257778 12.16056889-41.65176889 12.16056889z m-390.44892444-320.17976889l387.02648888 245.25027556a6.26232889 6.26232889 0 0 0 6.9176889 0l387.17212444-244.74055111 0.43690666-396.85688889-387.24494222-235.78396445a6.5536 6.5536 0 0 0-6.69923555 0l-387.39057778 235.49269334-0.21845333 396.85688888v-0.21845333z m389.86638222 197.62744889h-0.14563556a36.40888889 36.40888889 0 0 1-36.0448-36.99143111l0.65536-257.04675555a36.40888889 36.40888889 0 0 1 36.11761778-36.77297778h0.07281778a36.55452445 36.55452445 0 0 1 36.0448 36.91861333l-0.50972444 257.04675555a36.55452445 36.55452445 0 0 1-36.19043556 36.84579556z m-40.12259556-373.19111111a41.43331555 41.43331555 0 0 1-20.89870222-5.38851555L190.07260445 372.48113778c-19.15107555-10.55857778-25.19495111-33.20490667-13.61692445-50.53553778a42.5984 42.5984 0 0 1 55.41432889-12.45184l273.72202666 151.82506667c19.07825778 10.55857778 25.19495111 33.20490667 13.61692445 50.68117333a41.28768 41.28768 0 0 1-34.51562667 17.69472z m123.86304 10.12167111a36.0448 36.0448 0 0 1-31.02037333-17.76753778 37.28270222 37.28270222 0 0 1 12.16056889-50.60835555l245.54154666-151.75224889a35.68071111 35.68071111 0 0 1 49.73454223 12.30620444 37.13706667 37.13706667 0 0 1-12.08775111 50.68117334L627.27054222 534.50069333a35.97198222 35.97198222 0 0 1-18.71416889 5.31569778z m-252.16796444-251.94951111c0 24.90368 19.80643555 45.07420445 44.27320889 45.07420445 24.46677333 0 44.27320889-20.17052445 44.27320889-45.07420445s-19.73361778-45.14702222-44.27320889-45.14702222a44.85575111 44.85575111 0 0 0-44.27320889 45.14702222zM267.25944889 644.30990222c0 24.83086222 19.73361778 45.07420445 44.27320889 45.07420445 24.39395555 0 44.20039111-20.24334222 44.20039111-45.07420445s-19.73361778-45.07420445-44.20039111-45.07420444a44.71011555 44.71011555 0 0 0-44.27320889 45.07420444z m333.65105778-356.44302222c0 24.90368 19.80643555 45.00138667 44.27320888 45.00138667a44.56448 44.56448 0 0 0 44.20039112-45.00138667 44.71011555 44.71011555 0 0 0-44.20039112-45.14702222 44.78293333 44.78293333 0 0 0-44.27320888 45.14702222z m13.18001778 475.86417778c0 25.04931555 19.80643555 45.07420445 44.27320888 45.07420444a44.49166222 44.49166222 0 0 0 44.12757334-45.07420444 44.56448 44.56448 0 0 0-44.12757334-45.00138667 44.71011555 44.71011555 0 0 0-44.27320888 45.00138667z m93.06112-119.27552c0 24.90368 19.73361778 45.07420445 44.2003911 45.07420444a44.71011555 44.71011555 0 0 0 44.2732089-45.07420444 44.71011555 44.71011555 0 0 0-44.2732089-45.14702223 44.63729778 44.63729778 0 0 0-44.2003911 45.14702223z m92.91548444-119.49397333c0 24.90368 19.73361778 45.07420445 44.20039111 45.07420444s44.27320889-20.17052445 44.27320889-45.07420444c0-24.90368-19.73361778-45.14702222-44.27320889-45.14702223s-44.20039111 20.24334222-44.20039111 45.14702223z m0 0" fill="#4692B8" p-id="2270" data-spm-anchor-id="a313x.7781069.0.i1" class=""></path></svg>