<?xml version="1.0" encoding="utf-8"?>
<!-- Generator: Adobe Illustrator 19.0.0, SVG Export Plug-In . SVG Version: 6.00 Build 0)  -->
<svg version="1.1" id="图层_1" xmlns="http://www.w3.org/2000/svg" xmlns:xlink="http://www.w3.org/1999/xlink" x="0px" y="0px"
	 viewBox="-197 320.9 200 200" style="enable-background:new -197 320.9 200 200;" xml:space="preserve">
<style type="text/css">
	.st0{fill:#4692B8;}
</style>
<path class="st0" d="M-97.2,520.9c-55,0-99.8-44.8-99.8-99.8s44.8-99.8,99.8-99.8s99.8,44.8,99.8,99.8S-42.1,520.9-97.2,520.9z
	 M-97.2,336.8c-46.5,0-84.3,37.8-84.3,84.3s37.8,84.3,84.3,84.3s84.3-37.8,84.3-84.3S-50.7,336.8-97.2,336.8z"/>
<path class="st0" d="M-102.7,425.3c-1.4-1.4-2.3-3.3-2.2-5.5l0.4-52.2c0.1-4.3,3.5-7.7,7.8-7.7c4.3,0.1,7.7,3.5,7.7,7.8l-0.4,52.2
	c-0.1,4.3-3.5,7.7-7.8,7.7C-99.5,427.7-101.4,426.8-102.7,425.3z"/>
<path class="st0" d="M-102.7,425.3c-1.4-1.4-2.3-3.3-2.2-5.5c0.1-4.3,3.5-7.7,7.8-7.7l54.4,0.8c4.3,0.1,7.7,3.5,7.7,7.8
	c-0.1,4.3-3.5,7.7-7.8,7.7l-54.4-0.8C-99.5,427.7-101.4,426.8-102.7,425.3z"/>
</svg>
