<?xml version="1.0" standalone="no"?><!DOCTYPE svg PUBLIC "-//W3C//DTD SVG 1.1//EN" "http://www.w3.org/Graphics/SVG/1.1/DTD/svg11.dtd"><svg t="1592886082818" class="icon" viewBox="0 0 1024 1024" version="1.1" xmlns="http://www.w3.org/2000/svg" p-id="1129" xmlns:xlink="http://www.w3.org/1999/xlink" width="200" height="200"><defs><style type="text/css"></style></defs><path d="M511.1808 857.7024c-189.8496 0-344.4736-154.624-344.4736-344.4736 0-189.8496 154.624-344.4736 344.4736-344.4736 189.8496 0 344.4736 154.624 344.4736 344.4736 0 189.8496-154.4192 344.4736-344.4736 344.4736z m0-635.6992c-160.5632 0-291.2256 130.6624-291.2256 291.2256s130.6624 291.2256 291.2256 291.2256S802.4064 673.792 802.4064 513.2288 671.744 222.0032 511.1808 222.0032z" p-id="1130" fill="#4692B8"></path><path d="M491.9296 527.7696c-4.7104-4.9152-7.7824-11.4688-7.5776-18.8416l1.4336-180.224c0.2048-14.7456 12.0832-26.624 26.8288-26.4192 14.7456 0.2048 26.624 12.0832 26.4192 26.8288l-1.4336 180.224c-0.2048 14.7456-12.0832 26.624-26.8288 26.4192-7.5776 0-14.1312-3.072-18.8416-7.9872z" p-id="1131" fill="#4692B8"></path><path d="M491.9296 527.7696c-4.7104-4.9152-7.7824-11.4688-7.5776-18.8416 0.2048-14.7456 12.0832-26.624 26.8288-26.4192l187.8016 2.6624c14.7456 0.2048 26.624 12.0832 26.4192 26.8288-0.2048 14.7456-12.0832 26.624-26.8288 26.4192l-187.8016-2.6624c-7.5776 0-14.1312-3.072-18.8416-7.9872z" p-id="1132" fill="#4692B8"></path></svg>