<?xml version="1.0" standalone="no"?><!DOCTYPE svg PUBLIC "-//W3C//DTD SVG 1.1//EN" "http://www.w3.org/Graphics/SVG/1.1/DTD/svg11.dtd"><svg t="1595221557098" class="icon" viewBox="0 0 1024 1024" version="1.1" xmlns="http://www.w3.org/2000/svg" p-id="2845" xmlns:xlink="http://www.w3.org/1999/xlink" width="32" height="32"><defs><style type="text/css"></style></defs><path d="M893.7 561.2c17.8 0 34.2 16.5 34.2 37.3v323.7c0 20.9-15 37.3-34.2 37.3h-338c-19.2 0-34.2-16.4-34.2-37.3V598.5c0-20.8 14.9-37.3 34.2-37.3h338zM403.9 884.9c17.6 2.7 30.5 18 30.2 35.8 0 20.9-17.9 37.3-37 35.8-149.2-14.9-265.5-122.3-268.2-288H64.5l97.2-144.6 97 144.7h-64.3c4 128.3 93.1 205.9 209.5 216.3z m65.7-820.4h-0.1c19.1 0 34.2 16.4 34.2 37.3V424c0 20.9-15.1 37.3-34.2 37.3h-338c-19.2 0-34.2-16.4-34.2-37.3V101.8c0.1-20.9 15.1-37.3 34.4-37.3h337.9z m150.5 73.2c-16.5-1.5-28.8-17.9-30.1-35.8 0-20.9 17.8-37.3 36.9-35.8 138.2 13.3 247.6 107.3 265.4 252h67.1l-97.2 144.7L765 318.1h60.2C807.6 210.7 724 148 620.1 137.7z m0 0" p-id="2846" fill="#4692B8"></path></svg>